# xmcd
#
# Track frame offsets:
#	150
#	19537
#	36075
#	49612
#	66300
#	86062
#	105550
#	122325
#	137400
#	156075
#
# Disc length: 2286 seconds
#
# Revision: 2
# Processed by: cddbd v1.5.2PL0 Copyright (c) Steve Scherf et al.
# Submitted via: EasyCDDAExtractor 16.0.6.1
#
DISCID=7508ec0a
DTITLE=Irma Thomas - The Way I Feel
DYEAR=1988
DGENRE=Blues
TTITLE0=Old Records
TTITLE1=Baby I Love You
TTITLE2=Sorry Wrong Number
TTITLE3=You Can Think Twice
TTITLE4=Sit Down and Cry
TTITLE5=All I Know Is The Way I Feel
TTITLE6=I'm Gonna Hold You to Your Promise
TTITLE7=I'll Take Care of You
TTITLE8=Dancing in the Street
TTITLE9=You Don't Know Nothin' About Love
EXTD=
EXTT0=
EXTT1=
EXTT2=
EXTT3=
EXTT4=
EXTT5=
EXTT6=
EXTT7=
EXTT8=
EXTT9=
PLAYORDER=
